<mxfile host="app.diagrams.net" modified="2022-04-08T12:05:46.963Z" agent="5.0 (Windows NT 10.0; Win64; x64) AppleWebKit/537.36 (KHTML, like Gecko) Chrome/100.0.4896.60 Safari/537.36 Edg/100.0.1185.29" etag="pAtkb0hQvGtbKouIy7jt" version="17.4.0" type="github">
  <diagram id="cN7pg1mrq9IHZCJJ18y1" name="Page-1">
    <mxGraphModel dx="683" dy="377" grid="1" gridSize="10" guides="1" tooltips="1" connect="1" arrows="1" fold="1" page="1" pageScale="1" pageWidth="827" pageHeight="1169" math="0" shadow="0">
      <root>
        <mxCell id="0" />
        <mxCell id="1" parent="0" />
        <mxCell id="qZnDxFDOvSbsccXKCWq4-3" style="edgeStyle=orthogonalEdgeStyle;rounded=0;orthogonalLoop=1;jettySize=auto;html=1;exitX=0.5;exitY=1;exitDx=0;exitDy=0;entryX=0.5;entryY=0;entryDx=0;entryDy=0;" edge="1" parent="1" source="qZnDxFDOvSbsccXKCWq4-1" target="qZnDxFDOvSbsccXKCWq4-2">
          <mxGeometry relative="1" as="geometry" />
        </mxCell>
        <mxCell id="qZnDxFDOvSbsccXKCWq4-1" value="开始" style="rounded=1;whiteSpace=wrap;html=1;" vertex="1" parent="1">
          <mxGeometry x="370" y="30" width="100" height="40" as="geometry" />
        </mxCell>
        <mxCell id="qZnDxFDOvSbsccXKCWq4-5" value="" style="edgeStyle=orthogonalEdgeStyle;rounded=0;orthogonalLoop=1;jettySize=auto;html=1;" edge="1" parent="1" source="qZnDxFDOvSbsccXKCWq4-2" target="qZnDxFDOvSbsccXKCWq4-4">
          <mxGeometry relative="1" as="geometry" />
        </mxCell>
        <mxCell id="qZnDxFDOvSbsccXKCWq4-2" value="解析用户操作" style="rounded=0;whiteSpace=wrap;html=1;" vertex="1" parent="1">
          <mxGeometry x="375" y="100" width="90" height="30" as="geometry" />
        </mxCell>
        <mxCell id="qZnDxFDOvSbsccXKCWq4-7" value="" style="edgeStyle=orthogonalEdgeStyle;rounded=0;orthogonalLoop=1;jettySize=auto;html=1;" edge="1" parent="1" source="qZnDxFDOvSbsccXKCWq4-4" target="qZnDxFDOvSbsccXKCWq4-6">
          <mxGeometry relative="1" as="geometry" />
        </mxCell>
        <mxCell id="qZnDxFDOvSbsccXKCWq4-4" value="获取帖子信息" style="rounded=0;whiteSpace=wrap;html=1;" vertex="1" parent="1">
          <mxGeometry x="375" y="160" width="90" height="30" as="geometry" />
        </mxCell>
        <mxCell id="qZnDxFDOvSbsccXKCWq4-9" value="" style="edgeStyle=orthogonalEdgeStyle;rounded=0;orthogonalLoop=1;jettySize=auto;html=1;" edge="1" parent="1" source="qZnDxFDOvSbsccXKCWq4-6" target="qZnDxFDOvSbsccXKCWq4-8">
          <mxGeometry relative="1" as="geometry" />
        </mxCell>
        <mxCell id="qZnDxFDOvSbsccXKCWq4-6" value="计算热度值" style="rounded=0;whiteSpace=wrap;html=1;" vertex="1" parent="1">
          <mxGeometry x="375" y="210" width="90" height="30" as="geometry" />
        </mxCell>
        <mxCell id="qZnDxFDOvSbsccXKCWq4-8" value="写入数据库" style="rounded=1;whiteSpace=wrap;html=1;" vertex="1" parent="1">
          <mxGeometry x="370" y="270" width="100" height="40" as="geometry" />
        </mxCell>
      </root>
    </mxGraphModel>
  </diagram>
</mxfile>
